# Blender v2.79 (sub 0) OBJ File: 'SimpleBeaker.blend'
# www.blender.org
mtllib Fluid.mtl
o Circle.001
v 0.195089 3.000000 -0.980786
v 0.382682 3.000000 -0.923880
v 0.555569 3.000000 -0.831470
v 0.707106 3.000000 -0.707108
v 0.831469 3.000000 -0.555571
v 0.923879 3.000000 -0.382684
v 0.980785 3.000000 -0.195091
v 1.000000 3.000000 -0.000001
v 0.980785 3.000000 0.195089
v 0.923880 3.000000 0.382683
v 0.831470 3.000000 0.555570
v 0.707107 3.000000 0.707106
v 0.555571 3.000000 0.831469
v 0.382684 3.000000 0.923879
v 0.195091 3.000000 0.980785
v 0.000000 3.000000 1.000000
v -0.195090 3.000000 0.980785
v -0.382683 3.000000 0.923880
v -0.555570 3.000000 0.831470
v -0.707107 3.000000 0.707107
v -0.831470 3.000000 0.555570
v -0.923880 3.000000 0.382683
v -0.980785 3.000000 0.195090
v -1.000000 3.000000 -0.000000
v -0.980785 3.000000 -0.195090
v -0.923880 3.000000 -0.382683
v -0.831470 3.000000 -0.555570
v -0.707107 3.000000 -0.707107
v -0.555570 3.000000 -0.831470
v -0.382683 3.000000 -0.923880
v -0.195090 3.000000 -0.980785
v 0.000000 3.000000 -1.000000
v 0.000000 0.000000 -1.000000
v -0.195090 0.000000 -0.980785
v -0.382683 0.000000 -0.923880
v -0.555570 0.000000 -0.831470
v -0.707107 0.000000 -0.707107
v -0.831470 0.000000 -0.555570
v -0.923880 0.000000 -0.382683
v -0.980785 0.000000 -0.195090
v -1.000000 0.000000 -0.000000
v -0.980785 0.000000 0.195090
v -0.923880 0.000000 0.382683
v -0.831470 0.000000 0.555570
v -0.707107 0.000000 0.707107
v -0.555570 0.000000 0.831470
v -0.382683 0.000000 0.923880
v -0.195090 0.000000 0.980785
v 0.000000 0.000000 1.000000
v 0.195091 0.000000 0.980785
v 0.382684 0.000000 0.923879
v 0.555571 0.000000 0.831469
v 0.707107 0.000000 0.707106
v 0.831470 0.000000 0.555570
v 0.923880 0.000000 0.382683
v 0.980785 0.000000 0.195089
v 1.000000 0.000000 -0.000001
v 0.980785 0.000000 -0.195091
v 0.923879 0.000000 -0.382684
v 0.831469 0.000000 -0.555571
v 0.707106 0.000000 -0.707108
v 0.555569 0.000000 -0.831470
v 0.382682 0.000000 -0.923880
v 0.195089 0.000000 -0.980786
v 0.000000 3.000000 -1.000000
v -0.195090 3.000000 -0.980785
v -0.382683 3.000000 -0.923880
v -0.555570 3.000000 -0.831470
v -0.707107 3.000000 -0.707107
v -0.831470 3.000000 -0.555570
v -0.923880 3.000000 -0.382683
v -0.980785 3.000000 -0.195090
v -1.000000 3.000000 -0.000000
v -0.980785 3.000000 0.195090
v -0.923880 3.000000 0.382683
v -0.831470 3.000000 0.555570
v -0.707107 3.000000 0.707107
v -0.555570 3.000000 0.831470
v -0.382683 3.000000 0.923880
v -0.195090 3.000000 0.980785
v 0.000000 3.000000 1.000000
v 0.195091 3.000000 0.980785
v 0.382684 3.000000 0.923879
v 0.555571 3.000000 0.831469
v 0.707107 3.000000 0.707106
v 0.831470 3.000000 0.555570
v 0.923880 3.000000 0.382683
v 0.980785 3.000000 0.195089
v 1.000000 3.000000 -0.000001
v 0.980785 3.000000 -0.195091
v 0.923879 3.000000 -0.382684
v 0.831469 3.000000 -0.555571
v 0.707106 3.000000 -0.707108
v 0.555569 3.000000 -0.831470
v 0.382682 3.000000 -0.923880
v 0.195089 3.000000 -0.980786
v 0.195089 0.000000 -0.980786
v 0.382682 0.000000 -0.923880
v 0.555569 0.000000 -0.831470
v 0.707106 0.000000 -0.707108
v 0.831469 0.000000 -0.555571
v 0.923879 0.000000 -0.382684
v 0.980785 0.000000 -0.195091
v 1.000000 0.000000 -0.000001
v 0.980785 0.000000 0.195089
v 0.923880 0.000000 0.382683
v 0.831470 0.000000 0.555570
v 0.707107 0.000000 0.707106
v 0.555571 0.000000 0.831469
v 0.382684 0.000000 0.923879
v 0.195091 0.000000 0.980785
v 0.000000 0.000000 1.000000
v -0.195090 0.000000 0.980785
v -0.382683 0.000000 0.923880
v -0.555570 0.000000 0.831470
v -0.707107 0.000000 0.707107
v -0.831470 0.000000 0.555570
v -0.923880 0.000000 0.382683
v -0.980785 0.000000 0.195090
v -1.000000 0.000000 -0.000000
v -0.980785 0.000000 -0.195090
v -0.923880 0.000000 -0.382683
v -0.831470 0.000000 -0.555570
v -0.707107 0.000000 -0.707107
v -0.555570 0.000000 -0.831470
v -0.382683 0.000000 -0.923880
v -0.195090 0.000000 -0.980785
v 0.000000 0.000000 -1.000000
vn 0.0000 1.0000 0.0000
vn -0.9808 0.0000 -0.1951
vn -0.9239 0.0000 -0.3827
vn -0.1951 0.0000 0.9808
vn -0.3827 0.0000 0.9239
vn 0.9808 0.0000 -0.1951
vn 1.0000 0.0000 0.0000
vn 0.5556 0.0000 0.8314
vn 0.3827 0.0000 0.9239
vn 0.8314 0.0000 -0.5556
vn 0.9239 0.0000 -0.3827
vn -0.5556 0.0000 0.8314
vn -1.0000 0.0000 0.0000
vn 0.0000 0.0000 1.0000
vn -0.1951 0.0000 -0.9808
vn 0.0000 0.0000 -1.0000
vn 0.7071 0.0000 0.7071
vn -0.5556 0.0000 -0.8314
vn -0.3827 0.0000 -0.9239
vn -0.9808 0.0000 0.1951
vn 0.1951 0.0000 -0.9808
vn 0.3827 0.0000 -0.9239
vn 0.8314 0.0000 0.5556
vn 0.5556 0.0000 -0.8314
vn 0.7071 0.0000 -0.7071
vn -0.9239 0.0000 0.3827
vn -0.7071 0.0000 -0.7071
vn 0.9239 0.0000 0.3827
vn -0.8314 0.0000 0.5556
vn 0.9808 0.0000 0.1951
vn -0.8314 0.0000 -0.5556
vn -0.7071 0.0000 0.7071
vn 0.1951 0.0000 0.9808
usemtl None
s off
f 3//1 2//1 1//1 32//1 31//1 30//1 29//1 28//1 27//1 26//1 25//1 24//1 23//1 22//1 21//1 20//1 19//1 18//1 17//1 16//1 15//1 14//1 13//1 12//1 11//1 10//1 9//1 8//1 7//1 6//1 5//1 4//1
f 64//1 33//1 34//1 35//1 36//1 37//1 38//1 39//1 40//1 41//1 42//1 43//1 44//1 45//1 46//1 47//1 48//1 49//1 50//1 51//1 52//1 53//1 54//1 55//1 56//1 57//1 58//1 59//1 60//1 61//1 62//1 63//1
s 1
f 121//2 72//2 71//3 122//3
f 113//4 80//4 79//5 114//5
f 103//6 90//6 89//7 104//7
f 109//8 84//8 83//9 110//9
f 101//10 92//10 91//11 102//11
f 114//5 79//5 78//12 115//12
f 120//13 73//13 72//2 121//2
f 112//14 81//14 80//4 113//4
f 127//15 66//15 65//16 128//16
f 108//17 85//17 84//8 109//8
f 125//18 68//18 67//19 126//19
f 102//11 91//11 90//6 103//6
f 119//20 74//20 73//13 120//13
f 97//21 96//21 95//22 98//22
f 126//19 67//19 66//15 127//15
f 107//23 86//23 85//17 108//17
f 99//24 94//24 93//25 100//25
f 118//26 75//26 74//20 119//20
f 124//27 69//27 68//18 125//18
f 106//28 87//28 86//23 107//23
f 128//16 65//16 96//21 97//21
f 117//29 76//29 75//26 118//26
f 98//22 95//22 94//24 99//24
f 105//30 88//30 87//28 106//28
f 123//31 70//31 69//27 124//27
f 116//32 77//32 76//29 117//29
f 111//33 82//33 81//14 112//14
f 104//7 89//7 88//30 105//30
f 122//3 71//3 70//31 123//31
f 115//12 78//12 77//32 116//32
f 110//9 83//9 82//33 111//33
f 100//25 93//25 92//10 101//10
