# Blender v2.79 (sub 0) OBJ File: 'SimpleBeaker.blend'
# www.blender.org
mtllib Beaker.mtl
o Circle.002
v 0.000000 0.000000 -1.000000
v -0.195090 0.000000 -0.980785
v -0.382683 0.000000 -0.923880
v -0.555570 0.000000 -0.831470
v -0.707107 0.000000 -0.707107
v -0.831470 0.000000 -0.555570
v -0.923880 0.000000 -0.382683
v -0.980785 0.000000 -0.195090
v -1.000000 0.000000 -0.000000
v -0.980785 0.000000 0.195090
v -0.923880 0.000000 0.382683
v -0.831470 0.000000 0.555570
v -0.707107 0.000000 0.707107
v -0.555570 0.000000 0.831470
v -0.382683 0.000000 0.923880
v -0.195090 0.000000 0.980785
v 0.000000 0.000000 1.000000
v 0.195091 0.000000 0.980785
v 0.382684 0.000000 0.923879
v 0.555571 0.000000 0.831469
v 0.707107 0.000000 0.707106
v 0.831470 0.000000 0.555570
v 0.923880 0.000000 0.382683
v 0.980785 0.000000 0.195089
v 1.000000 0.000000 -0.000001
v 0.980785 0.000000 -0.195091
v 0.923879 0.000000 -0.382684
v 0.831469 0.000000 -0.555571
v 0.707106 0.000000 -0.707108
v 0.555569 0.000000 -0.831470
v 0.382682 0.000000 -0.923880
v 0.195089 0.000000 -0.980786
v 0.000000 -0.200000 0.000000
v 0.000000 0.000000 0.000000
v 0.000000 3.161567 -1.000000
v 0.000000 3.200000 -1.038619
v -0.202624 3.200000 -1.018662
v -0.195090 3.161567 -0.980785
v -0.397462 3.200000 -0.959558
v -0.382683 3.161567 -0.923880
v -0.577026 3.200000 -0.863580
v -0.555570 3.161567 -0.831470
v -0.734414 3.200000 -0.734414
v -0.707107 3.161567 -0.707107
v -0.863580 3.200000 -0.577026
v -0.831470 3.161567 -0.555570
v -0.959558 3.200000 -0.397462
v -0.923880 3.161567 -0.382683
v -1.018662 3.200000 -0.202624
v -0.980785 3.161567 -0.195090
v -1.038619 3.200000 -0.000000
v -1.000000 3.161567 -0.000000
v -1.018662 3.200000 0.202624
v -0.980785 3.161567 0.195090
v -0.959558 3.200000 0.397462
v -0.923880 3.161567 0.382683
v -0.863580 3.200000 0.577026
v -0.831470 3.161567 0.555570
v -0.734414 3.200000 0.734414
v -0.707107 3.161567 0.707107
v -0.577026 3.200000 0.863580
v -0.555570 3.161567 0.831470
v -0.397462 3.200000 0.959559
v -0.382683 3.161567 0.923880
v -0.202624 3.200000 1.018662
v -0.195090 3.161567 0.980785
v 0.000000 3.200000 1.038619
v 0.000000 3.161567 1.000000
v 0.202625 3.200000 1.018662
v 0.195091 3.161567 0.980785
v 0.397463 3.200000 0.959558
v 0.382684 3.161567 0.923879
v 0.577026 3.200000 0.863580
v 0.555571 3.161567 0.831469
v 0.734415 3.200000 0.734414
v 0.707107 3.161567 0.707106
v 0.863580 3.200000 0.577025
v 0.831470 3.161567 0.555570
v 0.959559 3.200000 0.397461
v 0.923880 3.161567 0.382683
v 1.018662 3.200000 0.202624
v 0.980785 3.161567 0.195089
v 1.038619 3.200000 -0.000001
v 1.000000 3.161567 -0.000001
v 1.018662 3.200000 -0.202626
v 0.980785 3.161567 -0.195091
v 0.959558 3.200000 -0.397463
v 0.923879 3.161567 -0.382684
v 0.863579 3.200000 -0.577027
v 0.831469 3.161567 -0.555571
v 0.734413 3.200000 -0.734415
v 0.707106 3.161567 -0.707108
v 0.577024 3.200000 -0.863581
v 0.555569 3.161567 -0.831470
v 0.397461 3.200000 -0.959559
v 0.382682 3.161567 -0.923880
v 0.202623 3.200000 -1.018662
v 0.195089 3.161567 -0.980786
v 0.000000 3.200000 -1.086392
v 0.000000 3.161567 -1.125011
v -0.219479 3.161567 -1.103394
v -0.211945 3.200000 -1.065517
v -0.430523 3.161567 -1.039375
v -0.415744 3.200000 -1.003696
v -0.625023 3.161567 -0.935412
v -0.603567 3.200000 -0.903302
v -0.795503 3.161567 -0.795503
v -0.768195 3.200000 -0.768195
v -0.935412 3.161567 -0.625023
v -0.903302 3.200000 -0.603567
v -1.039375 3.161567 -0.430523
v -1.003695 3.200000 -0.415744
v -1.103394 3.161567 -0.219479
v -1.065517 3.200000 -0.211945
v -1.125011 3.161567 -0.000000
v -1.086392 3.200000 -0.000000
v -1.103394 3.161567 0.219479
v -1.065518 3.200000 0.211945
v -1.039375 3.161567 0.430523
v -1.003696 3.200000 0.415744
v -0.935412 3.161567 0.625023
v -0.903302 3.200000 0.603567
v -0.795503 3.161567 0.795503
v -0.768195 3.200000 0.768195
v -0.625023 3.161567 0.935412
v -0.603567 3.200000 0.903302
v -0.430523 3.161567 1.039375
v -0.415744 3.200000 1.003696
v -0.219478 3.161567 1.103394
v -0.211944 3.200000 1.065518
v 0.000000 3.161567 1.125011
v 0.000000 3.200000 1.086392
v 0.219479 3.161567 1.103394
v 0.211945 3.200000 1.065518
v 0.430524 3.161567 1.039374
v 0.415745 3.200000 1.003695
v 0.625023 3.161567 0.935412
v 0.603568 3.200000 0.903302
v 0.795503 3.161567 0.795502
v 0.768196 3.200000 0.768195
v 0.935413 3.161567 0.625022
v 0.903303 3.200000 0.603567
v 1.039375 3.161567 0.430522
v 1.003696 3.200000 0.415744
v 1.103394 3.161567 0.219478
v 1.065518 3.200000 0.211944
v 1.125011 3.161567 -0.000001
v 1.086392 3.200000 -0.000001
v 1.103394 3.161567 -0.219480
v 1.065517 3.200000 -0.211946
v 1.039374 3.161567 -0.430524
v 1.003695 3.200000 -0.415745
v 0.935412 3.161567 -0.625024
v 0.903302 3.200000 -0.603568
v 0.795502 3.161567 -0.795504
v 0.768194 3.200000 -0.768196
v 0.625021 3.161567 -0.935413
v 0.603566 3.200000 -0.903303
v 0.430522 3.161567 -1.039375
v 0.415743 3.200000 -1.003696
v 0.219477 3.161567 -1.103395
v 0.211943 3.200000 -1.065518
v 0.000000 -0.161567 -1.125011
v 0.000000 -0.200000 -1.086392
v -0.211945 -0.200000 -1.065518
v -0.219479 -0.161567 -1.103394
v -0.415744 -0.200000 -1.003696
v -0.430523 -0.161567 -1.039375
v -0.603567 -0.200000 -0.903302
v -0.625023 -0.161567 -0.935412
v -0.768195 -0.200000 -0.768195
v -0.795503 -0.161567 -0.795503
v -0.903302 -0.200000 -0.603567
v -0.935412 -0.161567 -0.625023
v -1.003695 -0.200000 -0.415744
v -1.039375 -0.161567 -0.430523
v -1.065518 -0.200000 -0.211945
v -1.103394 -0.161567 -0.219479
v -1.086392 -0.200000 -0.000000
v -1.125011 -0.161567 -0.000000
v -1.065518 -0.200000 0.211944
v -1.103394 -0.161567 0.219479
v -1.003696 -0.200000 0.415744
v -1.039375 -0.161567 0.430523
v -0.903302 -0.200000 0.603567
v -0.935412 -0.161567 0.625023
v -0.768195 -0.200000 0.768195
v -0.795503 -0.161567 0.795503
v -0.603567 -0.200000 0.903302
v -0.625023 -0.161567 0.935412
v -0.415744 -0.200000 1.003696
v -0.430523 -0.161567 1.039375
v -0.211944 -0.200000 1.065518
v -0.219478 -0.161567 1.103394
v 0.000000 -0.200000 1.086392
v 0.000000 -0.161567 1.125011
v 0.211945 -0.200000 1.065518
v 0.219479 -0.161567 1.103394
v 0.415745 -0.200000 1.003695
v 0.430524 -0.161567 1.039374
v 0.603568 -0.200000 0.903302
v 0.625023 -0.161567 0.935412
v 0.768196 -0.200000 0.768195
v 0.795503 -0.161567 0.795502
v 0.903303 -0.200000 0.603567
v 0.935413 -0.161567 0.625022
v 1.003696 -0.200000 0.415744
v 1.039375 -0.161567 0.430522
v 1.065518 -0.200000 0.211944
v 1.103394 -0.161567 0.219478
v 1.086392 -0.200000 -0.000001
v 1.125011 -0.161567 -0.000001
v 1.065517 -0.200000 -0.211946
v 1.103394 -0.161567 -0.219480
v 1.003695 -0.200000 -0.415745
v 1.039374 -0.161567 -0.430524
v 0.903302 -0.200000 -0.603568
v 0.935412 -0.161567 -0.625024
v 0.768194 -0.200000 -0.768196
v 0.795502 -0.161567 -0.795504
v 0.603566 -0.200000 -0.903303
v 0.625021 -0.161567 -0.935413
v 0.415743 -0.200000 -1.003696
v 0.430522 -0.161567 -1.039375
v 0.211943 -0.200000 -1.065518
v 0.219477 -0.161567 -1.103395
v 0.000000 3.161567 -1.125011
v -0.219479 3.161567 -1.103394
v -0.430523 3.161567 -1.039375
v -0.625023 3.161567 -0.935412
v -0.795503 3.161567 -0.795503
v -0.935412 3.161567 -0.625023
v -1.039375 3.161567 -0.430523
v -1.103394 3.161567 -0.219479
v -1.125011 3.161567 -0.000000
v -1.103394 3.161567 0.219479
v -1.039375 3.161567 0.430523
v -0.935412 3.161567 0.625023
v -0.795503 3.161567 0.795503
v -0.625023 3.161567 0.935412
v -0.430523 3.161567 1.039375
v -0.219478 3.161567 1.103394
v 0.000000 3.161567 1.125011
v 0.219479 3.161567 1.103394
v 0.430524 3.161567 1.039374
v 0.625023 3.161567 0.935412
v 0.795503 3.161567 0.795502
v 0.935413 3.161567 0.625022
v 1.039375 3.161567 0.430522
v 1.103394 3.161567 0.219478
v 1.125011 3.161567 -0.000001
v 1.103394 3.161567 -0.219480
v 1.039374 3.161567 -0.430524
v 0.935412 3.161567 -0.625024
v 0.795502 3.161567 -0.795504
v 0.625021 3.161567 -0.935413
v 0.430522 3.161567 -1.039375
v 0.219477 3.161567 -1.103395
v 0.000000 3.200000 -1.038619
v -0.202624 3.200000 -1.018662
v -0.397462 3.200000 -0.959558
v -0.577026 3.200000 -0.863580
v -0.734414 3.200000 -0.734414
v -0.863580 3.200000 -0.577026
v -0.959558 3.200000 -0.397462
v -1.018662 3.200000 -0.202624
v -1.038619 3.200000 -0.000000
v -1.018662 3.200000 0.202624
v -0.959558 3.200000 0.397462
v -0.863580 3.200000 0.577026
v -0.734414 3.200000 0.734414
v -0.577026 3.200000 0.863580
v -0.397462 3.200000 0.959559
v -0.202624 3.200000 1.018662
v 0.000000 3.200000 1.038619
v 0.202625 3.200000 1.018662
v 0.397463 3.200000 0.959558
v 0.577026 3.200000 0.863580
v 0.734415 3.200000 0.734414
v 0.863580 3.200000 0.577025
v 0.959559 3.200000 0.397461
v 1.018662 3.200000 0.202624
v 1.038619 3.200000 -0.000001
v 1.018662 3.200000 -0.202626
v 0.959558 3.200000 -0.397463
v 0.863579 3.200000 -0.577027
v 0.734413 3.200000 -0.734415
v 0.577024 3.200000 -0.863581
v 0.397461 3.200000 -0.959559
v 0.202623 3.200000 -1.018662
v -0.211945 3.200000 -1.065517
v 0.000000 3.200000 -1.086392
v -0.415744 3.200000 -1.003696
v -0.603567 3.200000 -0.903302
v -0.768195 3.200000 -0.768195
v -0.903302 3.200000 -0.603567
v -1.003695 3.200000 -0.415744
v -1.065517 3.200000 -0.211945
v -1.086392 3.200000 -0.000000
v -1.065518 3.200000 0.211945
v -1.003696 3.200000 0.415744
v -0.903302 3.200000 0.603567
v -0.768195 3.200000 0.768195
v -0.603567 3.200000 0.903302
v -0.415744 3.200000 1.003696
v -0.211944 3.200000 1.065518
v 0.000000 3.200000 1.086392
v 0.211945 3.200000 1.065518
v 0.415745 3.200000 1.003695
v 0.603568 3.200000 0.903302
v 0.768196 3.200000 0.768195
v 0.903303 3.200000 0.603567
v 1.003696 3.200000 0.415744
v 1.065518 3.200000 0.211944
v 1.086392 3.200000 -0.000001
v 1.065517 3.200000 -0.211946
v 1.003695 3.200000 -0.415745
v 0.903302 3.200000 -0.603568
v 0.768194 3.200000 -0.768196
v 0.603566 3.200000 -0.903303
v 0.415743 3.200000 -1.003696
v 0.211943 3.200000 -1.065518
v -0.195090 3.161567 -0.980785
v 0.000000 3.161567 -1.000000
v -0.382683 3.161567 -0.923880
v -0.555570 3.161567 -0.831470
v -0.707107 3.161567 -0.707107
v -0.831470 3.161567 -0.555570
v -0.923880 3.161567 -0.382683
v -0.980785 3.161567 -0.195090
v -1.000000 3.161567 -0.000000
v -0.980785 3.161567 0.195090
v -0.923880 3.161567 0.382683
v -0.831470 3.161567 0.555570
v -0.707107 3.161567 0.707107
v -0.555570 3.161567 0.831470
v -0.382683 3.161567 0.923880
v -0.195090 3.161567 0.980785
v 0.000000 3.161567 1.000000
v 0.195091 3.161567 0.980785
v 0.382684 3.161567 0.923879
v 0.555571 3.161567 0.831469
v 0.707107 3.161567 0.707106
v 0.831470 3.161567 0.555570
v 0.923880 3.161567 0.382683
v 0.980785 3.161567 0.195089
v 1.000000 3.161567 -0.000001
v 0.980785 3.161567 -0.195091
v 0.923879 3.161567 -0.382684
v 0.831469 3.161567 -0.555571
v 0.707106 3.161567 -0.707108
v 0.555569 3.161567 -0.831470
v 0.382682 3.161567 -0.923880
v 0.195089 3.161567 -0.980786
v -0.219479 -0.161567 -1.103394
v 0.000000 -0.161567 -1.125011
v -0.430523 -0.161567 -1.039375
v -0.625023 -0.161567 -0.935412
v -0.795503 -0.161567 -0.795503
v -0.935412 -0.161567 -0.625023
v -1.039375 -0.161567 -0.430523
v -1.103394 -0.161567 -0.219479
v -1.125011 -0.161567 -0.000000
v -1.103394 -0.161567 0.219479
v -1.039375 -0.161567 0.430523
v -0.935412 -0.161567 0.625023
v -0.795503 -0.161567 0.795503
v -0.625023 -0.161567 0.935412
v -0.430523 -0.161567 1.039375
v -0.219478 -0.161567 1.103394
v 0.000000 -0.161567 1.125011
v 0.219479 -0.161567 1.103394
v 0.430524 -0.161567 1.039374
v 0.625023 -0.161567 0.935412
v 0.795503 -0.161567 0.795502
v 0.935413 -0.161567 0.625022
v 1.039375 -0.161567 0.430522
v 1.103394 -0.161567 0.219478
v 1.125011 -0.161567 -0.000001
v 1.103394 -0.161567 -0.219480
v 1.039374 -0.161567 -0.430524
v 0.935412 -0.161567 -0.625024
v 0.795502 -0.161567 -0.795504
v 0.625021 -0.161567 -0.935413
v 0.430522 -0.161567 -1.039375
v 0.219477 -0.161567 -1.103395
v 0.000000 -0.200000 -1.086392
v -0.211945 -0.200000 -1.065518
v -0.415744 -0.200000 -1.003696
v -0.603567 -0.200000 -0.903302
v -0.768195 -0.200000 -0.768195
v -0.903302 -0.200000 -0.603567
v -1.003695 -0.200000 -0.415744
v -1.065518 -0.200000 -0.211945
v -1.086392 -0.200000 -0.000000
v -1.065518 -0.200000 0.211944
v -1.003696 -0.200000 0.415744
v -0.903302 -0.200000 0.603567
v -0.768195 -0.200000 0.768195
v -0.603567 -0.200000 0.903302
v -0.415744 -0.200000 1.003696
v -0.211944 -0.200000 1.065518
v 0.000000 -0.200000 1.086392
v 0.211945 -0.200000 1.065518
v 0.415745 -0.200000 1.003695
v 0.603568 -0.200000 0.903302
v 0.768196 -0.200000 0.768195
v 0.903303 -0.200000 0.603567
v 1.003696 -0.200000 0.415744
v 1.065518 -0.200000 0.211944
v 1.086392 -0.200000 -0.000001
v 1.065517 -0.200000 -0.211946
v 1.003695 -0.200000 -0.415745
v 0.903302 -0.200000 -0.603568
v 0.768194 -0.200000 -0.768196
v 0.603566 -0.200000 -0.903303
v 0.415743 -0.200000 -1.003696
v 0.211943 -0.200000 -1.065518
v -0.195090 0.000000 -0.980785
v 0.000000 0.000000 -1.000000
v -0.382683 0.000000 -0.923880
v -0.555570 0.000000 -0.831470
v -0.707107 0.000000 -0.707107
v -0.831470 0.000000 -0.555570
v -0.923880 0.000000 -0.382683
v -0.980785 0.000000 -0.195090
v -1.000000 0.000000 -0.000000
v -0.980785 0.000000 0.195090
v -0.923880 0.000000 0.382683
v -0.831470 0.000000 0.555570
v -0.707107 0.000000 0.707107
v -0.555570 0.000000 0.831470
v -0.382683 0.000000 0.923880
v -0.195090 0.000000 0.980785
v 0.000000 0.000000 1.000000
v 0.195091 0.000000 0.980785
v 0.382684 0.000000 0.923879
v 0.555571 0.000000 0.831469
v 0.707107 0.000000 0.707106
v 0.831470 0.000000 0.555570
v 0.923880 0.000000 0.382683
v 0.980785 0.000000 0.195089
v 1.000000 0.000000 -0.000001
v 0.980785 0.000000 -0.195091
v 0.923879 0.000000 -0.382684
v 0.831469 0.000000 -0.555571
v 0.707106 0.000000 -0.707108
v 0.555569 0.000000 -0.831470
v 0.382682 0.000000 -0.923880
v 0.195089 0.000000 -0.980786
vn -0.9808 0.0000 0.1951
vn -1.0000 0.0000 0.0000
vn 0.7071 0.0000 -0.7071
vn 0.8314 0.0000 -0.5556
vn -0.9239 0.0000 0.3827
vn 0.5556 0.0000 -0.8314
vn -0.8314 0.0000 0.5556
vn 0.3827 0.0000 -0.9239
vn -0.7071 0.0000 0.7071
vn 0.1951 0.0000 -0.9808
vn 0.0000 0.0000 1.0000
vn -0.1951 0.0000 0.9808
vn -0.5556 0.0000 0.8314
vn 0.0000 0.0000 -1.0000
vn 0.5556 0.0000 0.8314
vn 0.3827 0.0000 0.9239
vn -0.3827 0.0000 0.9239
vn -0.1951 0.0000 -0.9808
vn 0.7071 0.0000 0.7071
vn -0.3827 0.0000 -0.9239
vn 0.8314 0.0000 0.5556
vn -0.5556 0.0000 -0.8314
vn 0.9239 0.0000 0.3827
vn 0.0000 1.0000 0.0000
vn -0.7071 0.0000 -0.7071
vn 0.9808 0.0000 0.1951
vn -0.8314 0.0000 -0.5556
vn 1.0000 0.0000 0.0000
vn -0.9239 0.0000 -0.3827
vn 0.9808 0.0000 -0.1951
vn -0.9808 0.0000 -0.1951
vn 0.9239 0.0000 -0.3827
vn 0.1951 0.0000 0.9808
vn 0.0000 -1.0000 0.0000
vn 0.1376 0.7088 0.6918
vn 0.0000 0.7088 0.7054
vn 0.2699 0.7088 0.6517
vn 0.3919 0.7088 0.5865
vn 0.4988 0.7088 0.4988
vn 0.5865 0.7088 0.3919
vn 0.6517 0.7088 0.2699
vn 0.6918 0.7088 0.1376
vn 0.7054 0.7088 0.0000
vn 0.6918 0.7088 -0.1376
vn 0.6517 0.7088 -0.2699
vn 0.5865 0.7088 -0.3919
vn 0.4988 0.7088 -0.4988
vn 0.3919 0.7088 -0.5865
vn 0.2699 0.7088 -0.6517
vn 0.1376 0.7088 -0.6918
vn 0.0000 0.7088 -0.7054
vn -0.1376 0.7088 -0.6918
vn -0.2699 0.7088 -0.6517
vn -0.3919 0.7088 -0.5865
vn -0.4988 0.7088 -0.4988
vn -0.5865 0.7088 -0.3919
vn -0.6517 0.7088 -0.2699
vn -0.6918 0.7088 -0.1376
vn -0.7054 0.7088 0.0000
vn -0.6918 0.7088 0.1376
vn -0.6517 0.7088 0.2699
vn -0.5865 0.7088 0.3919
vn -0.4988 0.7088 0.4988
vn -0.3919 0.7088 0.5865
vn -0.2699 0.7088 0.6517
vn -0.1376 0.7088 0.6918
vn -0.1376 -0.7088 -0.6918
vn 0.0000 -0.7088 -0.7054
vn -0.2699 -0.7088 -0.6517
vn -0.3919 -0.7088 -0.5865
vn -0.4988 -0.7088 -0.4988
vn -0.5865 -0.7088 -0.3919
vn -0.6517 -0.7088 -0.2699
vn -0.6918 -0.7088 -0.1376
vn -0.7054 -0.7088 0.0000
vn -0.6918 -0.7088 0.1376
vn -0.6517 -0.7088 0.2699
vn -0.5865 -0.7088 0.3919
vn -0.4988 -0.7088 0.4988
vn -0.3919 -0.7088 0.5865
vn -0.2699 -0.7088 0.6517
vn -0.1376 -0.7088 0.6918
vn 0.0000 -0.7088 0.7054
vn 0.1376 -0.7088 0.6918
vn 0.2699 -0.7088 0.6517
vn 0.3919 -0.7088 0.5865
vn 0.4988 -0.7088 0.4988
vn 0.5865 -0.7088 0.3919
vn 0.6517 -0.7088 0.2699
vn 0.6918 -0.7088 0.1376
vn 0.7054 -0.7088 0.0000
vn 0.6918 -0.7088 -0.1376
vn 0.6517 -0.7088 -0.2699
vn 0.5865 -0.7088 -0.3919
vn 0.4988 -0.7088 -0.4988
vn 0.3919 -0.7088 -0.5865
vn 0.2699 -0.7088 -0.6517
vn 0.1376 -0.7088 -0.6918
usemtl None
s 1
f 444//1 443//2 84//2 86//1
f 431//3 430//4 58//4 60//3
f 445//5 444//1 86//1 88//5
f 432//6 431//3 60//3 62//6
f 446//7 445//5 88//5 90//7
f 433//8 432//6 62//6 64//8
f 447//9 446//7 90//7 92//9
f 434//10 433//8 64//8 66//10
f 1//11 450//12 98//12 35//11
f 448//13 447//9 92//9 94//13
f 435//14 434//10 66//10 68//14
f 422//15 421//16 40//16 42//15
f 449//17 448//13 94//13 96//17
f 436//18 435//14 68//14 70//18
f 423//19 422//15 42//15 44//19
f 450//12 449//17 96//17 98//12
f 437//20 436//18 70//18 72//20
f 424//21 423//19 44//19 46//21
f 100//14 356//14 166//18 101//18
f 438//22 437//20 72//20 74//22
f 425//23 424//21 46//21 48//23
f 37//24 36//24 292//24 102//24
f 439//25 438//22 74//22 76//25
f 426//26 425//23 48//23 50//26
f 440//27 439//25 76//25 78//27
f 427//28 426//26 50//26 52//28
f 441//29 440//27 78//27 80//29
f 428//30 427//28 52//28 54//30
f 442//31 441//29 80//29 82//31
f 429//32 428//30 54//30 56//32
f 443//2 442//31 82//31 84//2
f 430//4 429//32 56//32 58//4
f 125//13 190//13 192//17 127//17
f 71//24 69//24 134//24 136//24
f 127//17 192//17 194//12 129//12
f 73//24 71//24 136//24 138//24
f 129//12 194//12 196//11 131//11
f 75//24 73//24 138//24 140//24
f 131//11 196//11 198//33 133//33
f 77//24 75//24 140//24 142//24
f 133//33 198//33 200//16 135//16
f 79//24 77//24 142//24 144//24
f 135//16 200//16 202//15 137//15
f 81//24 79//24 144//24 146//24
f 137//15 202//15 204//19 139//19
f 83//24 81//24 146//24 148//24
f 139//19 204//19 206//21 141//21
f 85//24 83//24 148//24 150//24
f 141//21 206//21 208//23 143//23
f 87//24 85//24 150//24 152//24
f 143//23 208//23 210//26 145//26
f 89//24 87//24 152//24 154//24
f 36//24 97//24 162//24 292//24
f 145//26 210//26 212//28 147//28
f 91//24 89//24 154//24 156//24
f 39//24 37//24 102//24 104//24
f 147//28 212//28 214//30 149//30
f 93//24 91//24 156//24 158//24
f 41//24 39//24 104//24 106//24
f 149//30 214//30 216//32 151//32
f 95//24 93//24 158//24 160//24
f 43//24 41//24 106//24 108//24
f 151//32 216//32 218//4 153//4
f 97//24 95//24 160//24 162//24
f 45//24 43//24 108//24 110//24
f 153//4 218//4 220//3 155//3
f 421//16 2//33 38//33 40//16
f 47//24 45//24 110//24 112//24
f 155//3 220//3 222//6 157//6
f 103//20 168//20 170//22 105//22
f 49//24 47//24 112//24 114//24
f 157//6 222//6 224//8 159//8
f 105//22 170//22 172//25 107//25
f 51//24 49//24 114//24 116//24
f 159//8 224//8 226//10 161//10
f 107//25 172//25 174//27 109//27
f 53//24 51//24 116//24 118//24
f 33//34 164//34 225//34
f 109//27 174//27 176//29 111//29
f 55//24 53//24 118//24 120//24
f 101//18 166//18 168//20 103//20
f 111//29 176//29 178//31 113//31
f 57//24 55//24 120//24 122//24
f 113//31 178//31 180//2 115//2
f 59//24 57//24 122//24 124//24
f 115//2 180//2 182//1 117//1
f 61//24 59//24 124//24 126//24
f 117//1 182//1 184//5 119//5
f 63//24 61//24 126//24 128//24
f 119//5 184//5 186//7 121//7
f 65//24 63//24 128//24 130//24
f 121//7 186//7 188//9 123//9
f 67//24 65//24 130//24 132//24
f 123//9 188//9 190//13 125//13
f 69//24 67//24 132//24 134//24
f 33//34 213//34 211//34
f 33//34 187//34 185//34
f 33//34 215//34 213//34
f 33//34 189//34 187//34
f 33//34 217//34 215//34
f 33//34 191//34 189//34
f 33//34 219//34 217//34
f 33//34 193//34 191//34
f 33//34 167//34 165//34
f 33//34 221//34 219//34
f 33//34 195//34 193//34
f 33//34 169//34 167//34
f 33//34 223//34 221//34
f 33//34 197//34 195//34
f 33//34 171//34 169//34
f 33//34 225//34 223//34
f 33//34 199//34 197//34
f 33//34 173//34 171//34
f 33//34 201//34 199//34
f 33//34 175//34 173//34
f 33//34 165//34 164//34
f 33//34 203//34 201//34
f 33//34 177//34 175//34
f 33//34 205//34 203//34
f 33//34 179//34 177//34
f 33//34 207//34 205//34
f 33//34 181//34 179//34
f 33//34 209//34 207//34
f 33//34 183//34 181//34
f 33//34 211//34 209//34
f 33//34 185//34 183//34
f 161//10 226//10 356//14 100//14
f 10//24 11//24 34//24
f 23//24 24//24 34//24
f 9//24 10//24 34//24
f 22//24 23//24 34//24
f 8//24 9//24 34//24
f 21//24 22//24 34//24
f 7//24 8//24 34//24
f 20//24 21//24 34//24
f 6//24 7//24 34//24
f 19//24 20//24 34//24
f 32//24 420//24 34//24
f 5//24 6//24 34//24
f 18//24 19//24 34//24
f 31//24 32//24 34//24
f 4//24 5//24 34//24
f 17//24 18//24 34//24
f 30//24 31//24 34//24
f 3//24 4//24 34//24
f 16//24 17//24 34//24
f 29//24 30//24 34//24
f 419//24 3//24 34//24
f 15//24 16//24 34//24
f 28//24 29//24 34//24
f 420//24 419//24 34//24
f 14//24 15//24 34//24
f 27//24 28//24 34//24
f 13//24 14//24 34//24
f 26//24 27//24 34//24
f 12//24 13//24 34//24
f 25//24 26//24 34//24
f 11//24 12//24 34//24
f 24//24 25//24 34//24
f 323//35 324//36 259//36 260//35
f 325//37 323//35 260//35 261//37
f 326//38 325//37 261//37 262//38
f 327//39 326//38 262//38 263//39
f 328//40 327//39 263//39 264//40
f 329//41 328//40 264//40 265//41
f 330//42 329//41 265//41 266//42
f 331//43 330//42 266//42 267//43
f 332//44 331//43 267//43 268//44
f 333//45 332//44 268//44 269//45
f 334//46 333//45 269//45 270//46
f 335//47 334//46 270//46 271//47
f 336//48 335//47 271//47 272//48
f 337//49 336//48 272//48 273//49
f 338//50 337//49 273//49 274//50
f 339//51 338//50 274//50 275//51
f 340//52 339//51 275//51 276//52
f 341//53 340//52 276//52 277//53
f 342//54 341//53 277//53 278//54
f 343//55 342//54 278//54 279//55
f 344//56 343//55 279//55 280//56
f 345//57 344//56 280//56 281//57
f 346//58 345//57 281//57 282//58
f 347//59 346//58 282//58 283//59
f 348//60 347//59 283//59 284//60
f 349//61 348//60 284//60 285//61
f 350//62 349//61 285//61 286//62
f 351//63 350//62 286//62 287//63
f 352//64 351//63 287//63 288//64
f 353//65 352//64 288//64 289//65
f 354//66 353//65 289//65 290//66
f 324//36 354//66 290//66 259//36
f 291//52 99//51 227//51 228//52
f 293//53 291//52 228//52 229//53
f 294//54 293//53 229//53 230//54
f 295//55 294//54 230//54 231//55
f 296//56 295//55 231//55 232//56
f 297//57 296//56 232//56 233//57
f 298//58 297//57 233//57 234//58
f 299//59 298//58 234//58 235//59
f 300//60 299//59 235//59 236//60
f 301//61 300//60 236//60 237//61
f 302//62 301//61 237//61 238//62
f 303//63 302//62 238//62 239//63
f 304//64 303//63 239//63 240//64
f 305//65 304//64 240//64 241//65
f 306//66 305//65 241//65 242//66
f 307//36 306//66 242//66 243//36
f 308//35 307//36 243//36 244//35
f 309//37 308//35 244//35 245//37
f 310//38 309//37 245//37 246//38
f 311//39 310//38 246//38 247//39
f 312//40 311//39 247//39 248//40
f 313//41 312//40 248//40 249//41
f 314//42 313//41 249//41 250//42
f 315//43 314//42 250//42 251//43
f 316//44 315//43 251//43 252//44
f 317//45 316//44 252//44 253//45
f 318//46 317//45 253//45 254//46
f 319//47 318//46 254//46 255//47
f 320//48 319//47 255//47 256//48
f 321//49 320//48 256//48 257//49
f 322//50 321//49 257//49 258//50
f 99//51 322//50 258//50 227//51
f 355//67 163//68 387//68 388//67
f 357//69 355//67 388//67 389//69
f 358//70 357//69 389//69 390//70
f 359//71 358//70 390//70 391//71
f 360//72 359//71 391//71 392//72
f 361//73 360//72 392//72 393//73
f 362//74 361//73 393//73 394//74
f 363//75 362//74 394//74 395//75
f 364//76 363//75 395//75 396//76
f 365//77 364//76 396//76 397//77
f 366//78 365//77 397//77 398//78
f 367//79 366//78 398//78 399//79
f 368//80 367//79 399//79 400//80
f 369//81 368//80 400//80 401//81
f 370//82 369//81 401//81 402//82
f 371//83 370//82 402//82 403//83
f 372//84 371//83 403//83 404//84
f 373//85 372//84 404//84 405//85
f 374//86 373//85 405//85 406//86
f 375//87 374//86 406//86 407//87
f 376//88 375//87 407//87 408//88
f 377//89 376//88 408//88 409//89
f 378//90 377//89 409//89 410//90
f 379//91 378//90 410//90 411//91
f 380//92 379//91 411//91 412//92
f 381//93 380//92 412//92 413//93
f 382//94 381//93 413//93 414//94
f 383//95 382//94 414//94 415//95
f 384//96 383//95 415//95 416//96
f 385//97 384//96 416//96 417//97
f 386//98 385//97 417//97 418//98
f 163//68 386//98 418//98 387//68
f 2//33 1//11 35//11 38//33
